PathFileType	4	(X/Y/Z)	/Users/itak/Documents/Research/Walk-IL/dataset/trc/00556_00009.trc
DataRate	CameraRate	NumFrames	NumMarkers	Units	OrigDataRate	OrigDataStartFrame	OrigNumFrames
100.000000	100.000000	4	55	mm	100.000000	119	318
Frame#	Time	RPSI			LPSI			L3			STRN			T10			C7			CLAV			RBAK			LBAK			LSHO			LUPA			LAEL			LAOL			LWTS			LWPS			LFRA			LIFD			LHPS			LHTS			RSHO			RUPA			RAEL			RAOL			RWTS			RWPS			RFRA			RIFD			RHTS			RHPS			RBHD			LFHD			RFHD			LBHD			LHIP			RHIP			RASI			LASI			LKNE			LTHI			LANK			LTIP			LTOE			LMT1			LMT5			LHEE			RKNE			RTHI			RANK			RTIP			RTOE			RMT1			RMT5			RHEE			*53			*54			
		X1	Y1	Z1	X2	Y2	Z2	X3	Y3	Z3	X4	Y4	Z4	X5	Y5	Z5	X6	Y6	Z6	X7	Y7	Z7	X8	Y8	Z8	X9	Y9	Z9	X10	Y10	Z10	X11	Y11	Z11	X12	Y12	Z12	X13	Y13	Z13	X14	Y14	Z14	X15	Y15	Z15	X16	Y16	Z16	X17	Y17	Z17	X18	Y18	Z18	X19	Y19	Z19	X20	Y20	Z20	X21	Y21	Z21	X22	Y22	Z22	X23	Y23	Z23	X24	Y24	Z24	X25	Y25	Z25	X26	Y26	Z26	X27	Y27	Z27	X28	Y28	Z28	X29	Y29	Z29	X30	Y30	Z30	X31	Y31	Z31	X32	Y32	Z32	X33	Y33	Z33	X34	Y34	Z34	X35	Y35	Z35	X36	Y36	Z36	X37	Y37	Z37	X38	Y38	Z38	X39	Y39	Z39	X40	Y40	Z40	X41	Y41	Z41	X42	Y42	Z42	X43	Y43	Z43	X44	Y44	Z44	X45	Y45	Z45	X46	Y46	Z46	X47	Y47	Z47	X48	Y48	Z48	X49	Y49	Z49	X50	Y50	Z50	X51	Y51	Z51	X52	Y52	Z52	X53	Y53	Z53	X54	Y54	Z54	X55	Y55	Z55	

120	1.19	-994.608642578125	962.1444091796875	-71.70547485351562	-939.0686645507812	982.1685180664062	-191.7435302734375	-941.9281616210938	1066.376220703125	-125.7979354858398	-681.2036743164062	1205.408081054688	-27.86478424072266	-917.2525634765625	1191.738525390625	-121.2263412475586	-812.8582763671875	1448.581176757812	-85.87236022949219	-672.8486328125	1316.783325195312	-29.06675148010254	-937.30224609375	1346.359741210938	-39.14867782592773	-819.890869140625	1398.331298828125	-183.8878021240234	-696.6911010742188	1402.12841796875	-219.0151824951172	-688.8982543945312	1283.976806640625	-307.4413146972656	-668.5238037109375	1066.798217773438	-342.9198913574219	-770.2079467773438	1054.4482421875	-333.8861694335938	-569.349609375	853.6046752929688	-236.0496368408203	-580.4991455078125	812.6130981445312	-312.4765930175781	-635.3773803710938	985.69091796875	-332.6369018554688	-541.080810546875	696.4066772460938	-205.2530517578125	-562.103759765625	758.788330078125	-290.7625427246094	-527.840576171875	785.6676025390625	-237.2334442138672	-828.8814086914062	1412.605102539062	77.03642272949219	-887.990478515625	1360.41796875	128.8454437255859	-979.1051025390625	1088.591918945312	168.0023651123047	-1028.64501953125	1078.567504882812	128.7042694091797	-848.4065551757812	867.706787109375	160.2596282958984	-912.2523803710938	849.609619140625	210.2238311767578	-976.664794921875	1032.616943359375	177.2602691650391	-834.1863403320312	700.7484741210938	188.4732055664062	-821.4138793945312	783.8663940429688	197.3169250488281	-891.5155639648438	780.6444702148438	226.466064453125	-717.5489501953125	1607.2138671875	20.09759330749512	-539.7063598632812	1591.172607421875	-85.87937927246094	-581.1493530273438	1596.2734375	52.18982696533203	-663.7302856445312	1598.32080078125	-136.2635192871094	-781.9375610351562	892.2252807617188	-272.1657409667969	-927.3763427734375	876.2699584960938	82.60538482666016	-828.0802001953125	899.202880859375	56.47855377197266	-722.8121948242188	903.1792602539062	-197.2436981201172	-848.6223754882812	445.7013549804688	-188.8973693847656	-806.1357421875	607.47216796875	-229.4336547851562	-1088.695556640625	30.83201026916504	-236.0137634277344	-993.8363647460938	228.9503173828125	-229.1560516357422	-905.4041748046875	49.26003265380859	-123.1466751098633	-984.0477905273438	42.82124328613281	-108.4664077758789	-968.3257446289062	40.61006546020508	-212.8995971679688	-1172.6376953125	26.55912780761719	-202.4528961181641	-702.474365234375	488.3753967285156	121.0707473754883	-846.2002563476562	744.34423828125	107.0487518310547	-923.5383911132812	71.90932464599609	35.4563102722168	-727.708740234375	343.843994140625	100.623161315918	-705.6954956054688	74.31157684326172	72.66139221191406	-749.3082275390625	67.84867095947266	12.06550121307373	-807.7041015625	71.18096923828125	98.61100006103516	-955.842041015625	61.64707565307617	-34.9743766784668	nan	nan	nan	nan	nan	nan	
121	1.2	-986.5578002929688	960.01708984375	-69.70613098144531	-931.6261596679688	981.2517700195312	-189.7805633544922	-933.7368774414062	1064.830078125	-123.9706878662109	-671.5833740234375	1201.44775390625	-24.09947776794434	-907.3065185546875	1189.79296875	-118.9428253173828	-800.69970703125	1445.658447265625	-82.83746337890625	-662.4174194335938	1312.709594726562	-24.85198593139648	-926.2708740234375	1344.469360351562	-37.07462310791016	-807.3035888671875	1395.5771484375	-181.0371856689453	-683.7826538085938	1398.37646484375	-214.8481750488281	-674.433349609375	1280.185791015625	-302.9752197265625	-651.5975341796875	1063.43115234375	-337.3678283691406	-753.427490234375	1049.567138671875	-330.2442626953125	-549.9144287109375	854.39208984375	-225.6466522216797	-558.6245727539062	812.1494140625	-301.7550659179688	-617.0217895507812	983.4165649414062	-325.5121154785156	-518.5548095703125	698.5399780273438	-192.2422027587891	-539.2586059570312	759.2952270507812	-279.0691528320312	-506.3880310058594	787.725341796875	-225.21923828125	-818.1546630859375	1409.819702148438	80.02854156494141	-878.3739624023438	1358.601806640625	131.3224334716797	-975.38427734375	1088.895263671875	169.7968292236328	-1024.593383789062	1079.660400390625	129.9443817138672	-847.4461669921875	866.5758666992188	163.9432830810547	-912.09375	849.1981201171875	213.0505523681641	-973.9639892578125	1032.85302734375	179.2417144775391	-835.0462646484375	699.7218627929688	192.84130859375	-821.7291259765625	782.7859497070312	201.6959838867188	-892.2081298828125	780.2407836914062	229.9632873535156	-705.77783203125	1603.443725585938	23.93360710144043	-527.7929077148438	1587.32861328125	-81.93964385986328	-569.3609619140625	1592.463623046875	56.1649284362793	-651.8554077148438	1594.484375	-132.3448486328125	-775.6318969726562	891.529296875	-271.8700256347656	-918.819091796875	873.8386840820312	83.64216613769531	-819.4671020507812	895.9783935546875	57.67485046386719	-715.7542114257812	901.462890625	-196.8130340576172	-848.0478515625	445.3099365234375	-191.2306671142578	-803.5687255859375	606.7684326171875	-231.0857849121094	-1088.628051757812	30.41569328308105	-236.398681640625	-993.7969970703125	228.9613189697266	-230.5655517578125	-905.2462158203125	48.48262405395508	-123.8042602539062	-983.6532592773438	42.93682861328125	-108.9627914428711	-968.033447265625	39.64498901367188	-213.5554046630859	-1172.5234375	26.59893989562988	-202.6418609619141	-687.228271484375	491.4130859375	126.1306228637695	-836.928955078125	743.9127197265625	109.0710754394531	-896.5508422851562	68.54518127441406	40.07305145263672	-708.191162109375	345.9495544433594	105.8767852783203	-679.05615234375	76.87030029296875	77.33567810058594	-722.2879638671875	69.40064239501953	16.63920211791992	-780.852783203125	70.70806121826172	103.2157897949219	-928.6214599609375	57.68681335449219	-30.41486740112305	nan	nan	nan	nan	nan	nan	
122	1.21	-978.03515625	957.8750610351562	-67.34079742431641	-923.95263671875	980.2135009765625	-187.53564453125	-925.0797119140625	1063.2802734375	-121.9501953125	-661.5509033203125	1197.37158203125	-20.36110496520996	-896.918701171875	1187.72509765625	-116.5661849975586	-788.2532958984375	1442.646606445312	-79.66761016845703	-651.6556396484375	1308.548461914062	-20.62263679504395	-914.8726806640625	1342.455078125	-34.83379364013672	-794.4247436523438	1392.807983398438	-178.0977630615234	-670.5089111328125	1394.67138671875	-210.5790710449219	-659.640380859375	1276.377807617188	-298.3167724609375	-634.5276489257812	1060.124389648438	-331.5363464355469	-736.4274291992188	1044.709594726562	-326.3147583007812	-530.4024658203125	855.6178588867188	-214.7684478759766	-536.6439819335938	812.0977172851562	-290.403076171875	-598.53857421875	981.3238525390625	-318.0306701660156	-495.8696594238281	701.33203125	-178.4654083251953	-516.2413330078125	760.3179321289062	-266.7026672363281	-484.8501281738281	790.33251953125	-212.6278381347656	-807.0236206054688	1406.855712890625	83.15657043457031	-868.3074951171875	1356.643798828125	133.9486541748047	-971.4773559570312	1089.338989257812	171.6562805175781	-1020.339965820312	1080.899658203125	131.2670288085938	-846.2716064453125	865.6883544921875	167.5723571777344	-911.6866455078125	848.9771728515625	215.8455200195312	-971.02294921875	1033.225219726562	181.1976165771484	-835.5968627929688	698.9471435546875	197.0518951416016	-821.7921752929688	781.9556274414062	206.0127258300781	-892.60400390625	780.043212890625	233.3956146240234	-693.7789916992188	1599.595581054688	27.88398551940918	-515.6334838867188	1583.435302734375	-77.85430145263672	-557.3494873046875	1588.593017578125	60.2722053527832	-639.7291259765625	1590.58349609375	-128.2843627929688	-769.305908203125	890.6425170898438	-271.5618896484375	-909.6385498046875	871.430908203125	84.94294738769531	-810.2034912109375	892.683349609375	58.99331665039062	-708.56103515625	899.5441284179688	-196.4609985351562	-847.3743286132812	444.8278503417969	-193.7871551513672	-800.9861450195312	605.9925537109375	-232.8950347900391	-1088.553588867188	29.95850372314453	-236.8102111816406	-993.7066650390625	228.9431610107422	-232.0059051513672	-904.985595703125	47.50497055053711	-124.4731597900391	-983.2379760742188	43.03195571899414	-109.4708862304688	-967.6400146484375	38.54868316650391	-214.2656402587891	-1172.371337890625	26.67972946166992	-202.8838195800781	-672.1735229492188	494.266845703125	131.1565093994141	-827.2965698242188	743.4876098632812	111.3356246948242	-869.2559204101562	64.90605926513672	44.8524055480957	-688.7632446289062	347.9185791015625	111.0976028442383	-652.18798828125	79.33876037597656	81.89447784423828	-695.15966796875	70.79691314697266	21.10830307006836	-753.635009765625	69.97588348388672	107.8151931762695	-901.1979370117188	53.51259994506836	-25.66711044311523	nan	nan	nan	nan	nan	nan	
123	1.22	-969.0287475585938	955.7066650390625	-64.59085845947266	-916.0444946289062	979.0137329101562	-184.9895782470703	-915.9293823242188	1061.719604492188	-119.7168884277344	-651.08984375	1193.201049804688	-16.65311431884766	-886.0575561523438	1185.513305664062	-114.1161422729492	-775.5413818359375	1439.554565429688	-76.38188171386719	-640.5648803710938	1304.327270507812	-16.37712287902832	-903.114501953125	1340.3056640625	-32.45869445800781	-781.2637329101562	1390.03955078125	-175.0926208496094	-656.8703002929688	1391.062866210938	-206.2112121582031	-644.5549926757812	1272.609252929688	-293.4640808105469	-617.384765625	1056.946044921875	-325.4833068847656	-719.2769165039062	1039.9658203125	-322.1637573242188	-510.950927734375	857.3118286132812	-203.540771484375	-514.7234497070312	812.4962768554688	-278.5483703613281	-580.0289916992188	979.4655151367188	-310.2720642089844	-473.2814636230469	704.776611328125	-164.0806579589844	-493.2303161621094	761.8797607421875	-253.8010559082031	-463.4188842773438	793.4884643554688	-199.6115417480469	-795.5294799804688	1403.733764648438	86.39511871337891	-857.83251953125	1354.561401367188	136.7054595947266	-967.330810546875	1089.925048828125	173.5724334716797	-1015.837219238281	1082.269775390625	132.6661529541016	-844.7748413085938	865.0771484375	171.1217041015625	-910.9212036132812	848.9572143554688	218.6007537841797	-967.7882690429688	1033.7451171875	183.1421966552734	-835.6834106445312	698.451416015625	201.1118621826172	-821.457275390625	781.4000854492188	210.2330474853516	-892.575439453125	780.0577392578125	236.7463836669922	-681.5433959960938	1595.691284179688	31.95305442810059	-503.2352294921875	1579.488037109375	-73.61166381835938	-545.116455078125	1584.66015625	64.51369476318359	-627.3438720703125	1586.643432617188	-124.0885467529297	-762.9396362304688	889.53369140625	-271.1881103515625	-899.7734375	869.0560302734375	86.54074096679688	-800.2587890625	889.3591918945312	60.41545486450195	-701.2221069335938	897.414794921875	-196.1837005615234	-846.549072265625	444.2525329589844	-196.4445343017578	-798.3479614257812	605.1227416992188	-234.741943359375	-1088.468627929688	29.46293640136719	-237.2155303955078	-993.5567016601562	228.9078216552734	-233.4127807617188	-904.6463012695312	46.32895278930664	-125.0605545043945	-982.8302612304688	43.07442092895508	-109.9379043579102	-967.1629638671875	37.40200805664062	-214.9718627929688	-1172.192626953125	26.82326889038086	-203.1883850097656	-657.2937622070312	496.8322448730469	136.0987396240234	-817.2573852539062	743.0475463867188	113.8416137695312	-841.995849609375	61.09911727905273	49.67856216430664	-669.5350341796875	349.68701171875	116.2162246704102	-625.3976440429688	81.55348968505859	86.17230987548828	-668.2650756835938	71.98249053955078	25.34248352050781	-726.368408203125	68.93011474609375	112.2769165039062	-873.9447021484375	49.30030822753906	-20.83620071411133	nan	nan	nan	nan	nan	nan	
